# xmcd
#
# Track frame offsets: 
#        150
#        12608
#        30309
#        41622
#        55664
#        70620
#        107497
#        129605
#
# Disc length: 2098 seconds
#
# Revision: 0
# Processed by: cddbd v1.5.1PL2 Copyright (c) Steve Scherf et al.
# Submitted via: ExactAudioCopy v0.95a5
#
DISCID=5f083008
DTITLE=The Blasters - Live: Going Home
DYEAR=2003
DGENRE=Blues
TTITLE0=Red Rose
TTITLE1=Trouble Bound
TTITLE2=I'm Shaking
TTITLE3=Sadie's Back In Town
TTITLE4=I Ain't Got You
TTITLE5=Flip Flop and Fly
TTITLE6=JB Lenoir Jam
TTITLE7=All Your Love
EXTD=
EXTT0=
EXTT1=
EXTT2=
EXTT3=
EXTT4=
EXTT5=
EXTT6=
EXTT7=
PLAYORDER=
